<?xml version="1.0" standalone="no"?>
<!DOCTYPE svg PUBLIC "-//W3C//DTD SVG 20010904//EN"
 "http://www.w3.org/TR/2001/REC-SVG-20010904/DTD/svg10.dtd">
<svg version="1.0" xmlns="http://www.w3.org/2000/svg"
 width="376.000000pt" height="376.000000pt" viewBox="0 0 376.000000 376.000000"
 preserveAspectRatio="xMidYMid meet">
<metadata>
Created by potrace 1.11, written by Peter Selinger 2001-2013
</metadata>
<g transform="translate(0.000000,376.000000) scale(0.100000,-0.100000)"
fill="#000000" stroke="none">
<path d="M1493 3262 c-7 -4 6 -15 30 -27 23 -11 69 -48 103 -81 59 -61 68 -65
159 -80 6 -1 12 -3 15 -4 3 -1 14 -3 24 -5 11 -2 29 -6 40 -9 12 -3 26 -6 31
-7 67 -13 374 -134 386 -152 4 -5 12 -6 18 -3 6 4 11 3 11 -2 0 -7 70 -46 78
-43 1 1 8 -3 15 -9 26 -23 147 -98 147 -92 0 4 4 2 8 -3 4 -6 45 -40 92 -77
47 -37 97 -78 112 -92 15 -14 32 -26 38 -26 6 0 9 -3 7 -7 -5 -11 90 -102 98
-94 4 3 5 2 3 -4 -4 -14 27 -57 35 -48 4 3 7 1 7 -5 0 -12 87 -131 105 -144 7
-5 7 -8 0 -8 -7 0 -7 -3 0 -8 10 -7 22 -27 59 -94 11 -21 24 -38 28 -38 5 0 6
-4 3 -10 -3 -5 1 -22 9 -37 19 -36 57 -142 60 -169 2 -11 5 -25 8 -30 17 -28
24 -194 13 -277 -10 -75 -11 -81 -31 -139 -9 -29 -16 -54 -15 -56 1 -1 -5 -10
-14 -18 -8 -9 -13 -20 -10 -25 4 -5 2 -9 -2 -9 -5 0 -16 -12 -25 -28 -9 -15
-36 -50 -60 -77 -47 -54 -28 -44 36 20 46 47 104 121 117 150 5 11 13 27 19
35 16 26 47 103 56 140 4 19 9 42 11 50 19 80 18 219 -1 324 -17 88 -31 132
-67 213 -10 24 -19 47 -19 53 0 5 -5 10 -12 10 -6 0 -8 3 -5 6 8 8 -44 104
-56 104 -5 0 -6 4 -3 9 3 5 -1 14 -9 21 -8 7 -15 18 -15 26 0 7 -8 18 -17 23
-10 6 -14 11 -10 11 4 0 3 6 -2 13 -6 6 -33 40 -61 75 -28 34 -55 62 -61 62
-6 0 -8 4 -5 9 8 12 -249 250 -270 251 -7 0 -15 7 -18 16 -3 8 -10 12 -16 9
-5 -3 -10 -2 -10 3 0 20 -350 225 -350 205 0 -4 -4 -3 -8 3 -19 27 -330 136
-423 148 -19 3 -34 5 -34 6 0 3 -58 14 -130 24 -22 3 -75 8 -118 11 -43 3 -82
7 -86 9 -4 3 -12 2 -18 -2z"/>
<path d="M1255 3173 c-45 -8 -101 -28 -119 -42 -14 -11 -17 -12 -11 -2 10 17
-47 -23 -89 -63 -17 -16 -30 -33 -28 -37 1 -5 -5 -12 -14 -16 -15 -5 -39 -50
-36 -65 1 -5 -2 -8 -7 -8 -13 0 -33 -82 -35 -149 -2 -63 33 -192 54 -199 6 -2
8 -8 5 -12 -3 -5 5 -16 17 -24 12 -9 19 -16 14 -16 -5 0 4 -12 21 -27 65 -60
106 -87 117 -76 3 3 6 1 6 -5 0 -6 16 -14 35 -18 47 -8 61 -31 23 -38 -38 -6
-148 -49 -148 -57 0 -6 -4 -8 -9 -4 -6 3 -20 -5 -32 -17 -12 -13 -18 -16 -14
-8 10 17 -73 -48 -120 -95 -50 -50 -105 -121 -98 -128 3 -4 1 -7 -5 -7 -6 0
-17 -12 -25 -27 -8 -16 -26 -50 -41 -78 -15 -27 -28 -56 -29 -65 -2 -8 -8 -24
-14 -36 -7 -11 -20 -53 -31 -93 -10 -40 -22 -73 -27 -74 -4 -1 -39 41 -76 93
-80 111 -187 314 -204 385 -1 6 -10 31 -18 57 -40 116 -55 342 -32 458 24 119
111 298 174 360 9 9 27 29 41 45 20 23 16 21 -20 -9 -149 -128 -243 -276 -292
-459 -29 -108 -31 -322 -4 -442 57 -249 194 -510 380 -720 23 -26 36 -51 37
-70 0 -16 3 -43 5 -60 9 -64 15 -115 15 -120 0 -2 5 -19 10 -37 6 -18 12 -42
15 -53 10 -38 11 -42 47 -132 11 -29 25 -53 29 -53 5 0 7 -4 4 -9 -6 -9 49
-101 68 -113 6 -4 8 -8 4 -8 -10 0 25 -42 83 -99 65 -65 96 -90 103 -84 3 4 6
2 6 -4 0 -6 14 -16 30 -23 17 -7 30 -16 30 -21 0 -5 3 -8 8 -7 4 1 24 -6 46
-15 21 -9 42 -14 47 -11 5 3 9 1 9 -4 0 -5 6 -9 13 -10 6 0 23 -3 37 -7 42
-10 178 -7 210 5 3 1 8 2 12 1 4 0 20 4 35 11 15 6 33 12 38 14 21 5 99 44 90
44 -5 1 4 7 20 14 40 17 126 92 117 101 -10 10 46 2 153 -23 50 -11 108 -23
130 -26 22 -3 63 -9 90 -13 28 -5 145 -8 260 -7 177 0 226 4 313 23 502 107
797 393 851 823 8 65 -4 70 -14 5 -9 -54 -67 -202 -85 -217 -3 -3 -17 -23 -30
-45 -34 -56 -143 -164 -220 -217 -66 -45 -187 -106 -245 -124 -116 -35 -342
-81 -351 -71 -2 2 11 24 30 48 39 49 95 149 99 176 1 10 5 23 8 28 10 16 28
77 34 115 19 106 21 136 18 221 -2 52 -4 103 -4 114 0 10 -3 24 -8 30 -4 5 -8
26 -10 45 -1 19 -5 37 -9 40 -4 3 -8 15 -10 28 -3 23 -34 93 -62 142 -8 14
-14 29 -15 33 0 4 -7 12 -15 17 -8 5 -11 10 -6 10 5 0 -3 11 -18 25 -15 14
-24 25 -20 25 4 0 -11 18 -34 40 -22 22 -45 40 -50 40 -5 0 -13 7 -16 16 -4 9
-9 14 -12 11 -4 -3 -15 3 -27 13 -11 11 -24 17 -29 14 -4 -3 -8 -1 -8 4 0 7
-66 32 -127 48 -23 6 -14 20 14 22 15 1 30 7 34 13 3 6 10 10 15 10 5 -1 17 6
27 14 9 8 17 12 17 8 0 -19 79 78 99 122 31 65 33 170 5 233 -10 23 -22 42
-27 42 -4 0 -6 4 -3 9 8 12 -93 103 -105 95 -5 -3 -9 -1 -9 4 0 27 -139 46
-209 29 -36 -9 -111 -48 -111 -57 0 -5 -9 -12 -21 -15 -11 -4 -18 -9 -16 -12
3 -2 -6 -16 -19 -30 -13 -14 -21 -29 -19 -33 3 -5 0 -10 -5 -12 -6 -2 -12 -10
-14 -18 -2 -8 -6 -22 -9 -30 -4 -8 -8 -35 -10 -60 -3 -39 -1 -59 18 -130 2 -8
4 -17 4 -20 3 -24 107 -130 126 -130 8 0 15 -5 17 -11 2 -5 10 -11 18 -13 31
-5 60 -18 60 -25 0 -7 -44 -20 -65 -21 -3 0 -20 -7 -38 -17 -17 -9 -35 -16
-38 -15 -4 1 -19 -10 -33 -23 -15 -14 -28 -23 -30 -22 -8 4 -66 -53 -66 -65 0
-6 -3 -8 -7 -5 -3 4 -12 -2 -20 -13 -15 -21 -33 -27 -33 -11 0 5 7 17 16 25 8
9 12 16 7 16 -4 0 0 5 10 11 18 11 24 39 7 39 -5 0 -9 4 -7 8 4 17 -69 119
-135 187 -37 38 -68 66 -68 63 0 -4 -12 4 -26 17 -15 14 -30 22 -35 19 -5 -3
-9 -1 -9 4 0 7 -60 42 -82 48 -5 1 -10 3 -13 4 -3 1 -8 3 -12 4 -5 1 -14 5
-21 10 -7 4 -16 5 -19 2 -3 -3 -12 -1 -19 4 -6 6 -16 10 -20 9 -22 -4 -34 2
-34 17 0 8 4 13 8 10 5 -3 21 1 35 9 15 8 31 14 35 15 20 1 42 12 42 21 0 6 5
7 10 4 6 -3 10 -1 10 4 0 6 6 11 12 11 7 0 29 18 49 40 20 22 34 40 31 40 -3
0 4 9 16 21 12 11 20 24 17 29 -3 4 0 10 6 12 6 2 18 33 28 68 19 70 19 163 0
215 -21 58 -52 115 -62 115 -6 0 -7 3 -4 6 8 8 -59 74 -74 74 -6 0 -7 5 -4 10
5 9 1 11 -20 10 -3 -1 -13 6 -21 15 -9 8 -19 13 -24 10 -5 -3 -10 -1 -12 5 -2
6 -13 12 -26 15 -12 3 -32 8 -44 11 -30 7 -107 11 -133 7z"/>
<path d="M960 3154 c-19 -8 -37 -20 -41 -25 -3 -6 -10 -10 -15 -10 -13 2 -74
-32 -74 -41 0 -5 -7 -8 -14 -8 -8 0 -50 -35 -93 -79 -92 -92 -93 -94 -124
-152 -13 -24 -27 -46 -30 -49 -19 -15 -86 -267 -74 -278 2 -2 11 22 20 53 18
64 63 164 82 183 7 7 13 17 13 21 0 12 148 159 154 153 3 -2 8 3 12 12 3 9 10
13 15 10 5 -3 12 2 15 10 3 9 10 13 15 11 4 -3 17 3 28 14 11 11 22 17 25 14
3 -4 6 0 6 7 0 7 3 10 7 7 4 -4 13 7 20 25 8 18 13 33 12 33 -3 0 21 30 46 59
21 23 37 46 34 46 -2 -1 -20 -8 -39 -16z"/>
</g>
</svg>
